HIERARCHY
ROOT Hips
{
    OFFSET   0.000000   0.000000   0.000000
    CHANNELS 6 Xposition Yposition Zposition Zrotation Xrotation Yrotation
    JOINT Chest
    {
        OFFSET   0.000000   8.007230   0.000000
        CHANNELS 3 Zrotation Xrotation Yrotation
        JOINT Chest2
        {
            OFFSET   0.000000  22.077100   0.000000
            CHANNELS 3 Zrotation Xrotation Yrotation
            JOINT Neck
            {
                OFFSET   0.000000  23.254800  -0.000021
                CHANNELS 3 Zrotation Xrotation Yrotation
                JOINT Head
                {
                    OFFSET   0.000000  14.370000   1.956610
                    CHANNELS 3 Zrotation Xrotation Yrotation
                    End Site
                    {
                        OFFSET   0.000000  19.566000   0.000000
                    }
                }
            }
            JOINT LeftCollar
            {
                OFFSET   3.911900  19.017000  -0.467063
                CHANNELS 3 Zrotation Xrotation Yrotation
                JOINT LeftShoulder
                {
                    OFFSET  10.383700   0.000000   0.000000
                    CHANNELS 3 Zrotation Xrotation Yrotation
                    JOINT LeftElbow
                    {
                        OFFSET  26.662100   0.001529   0.000325
                        CHANNELS 3 Zrotation Xrotation Yrotation
                        JOINT LeftWrist
                        {
                            OFFSET  28.869000  -0.000011  -0.000096
                            CHANNELS 3 Zrotation Xrotation Yrotation
                            JOINT LeftFinger0
                            {
                                OFFSET   2.044650  -2.323460   3.252850
                                CHANNELS 3 Zrotation Xrotation Yrotation
                                JOINT LeftFinger01
                                {
                                    OFFSET   3.088130   0.000000   0.000000
                                    CHANNELS 3 Zrotation Xrotation Yrotation
                                    JOINT LeftFinger02
                                    {
                                        OFFSET   2.639460   0.000000   0.000000
                                        CHANNELS 3 Zrotation Xrotation Yrotation
                                        End Site
                                        {
                                            OFFSET   2.582190   0.000000   0.000000
                                        }
                                    }
                                }
                            }
                            JOINT LeftFinger1
                            {
                                OFFSET   8.364480   0.000000   3.252850
                                CHANNELS 3 Zrotation Xrotation Yrotation
                                JOINT LeftFinger11
                                {
                                    OFFSET   4.646930   0.000000   0.000000
                                    CHANNELS 3 Zrotation Xrotation Yrotation
                                    JOINT LeftFinger12
                                    {
                                        OFFSET   2.323460   0.000000   0.000000
                                        CHANNELS 3 Zrotation Xrotation Yrotation
                                        End Site
                                        {
                                            OFFSET   2.273050   0.000000   0.000000
                                        }
                                    }
                                }
                            }
                            JOINT LeftFinger2
                            {
                                OFFSET   8.364480   0.000016   1.078090
                                CHANNELS 3 Zrotation Xrotation Yrotation
                                JOINT LeftFinger21
                                {
                                    OFFSET   5.111620   0.000000   0.000000
                                    CHANNELS 3 Zrotation Xrotation Yrotation
                                    JOINT LeftFinger22
                                    {
                                        OFFSET   2.788160   0.000017   0.000000
                                        CHANNELS 3 Zrotation Xrotation Yrotation
                                        End Site
                                        {
                                            OFFSET   2.727660   0.000000   0.000000
                                        }
                                    }
                                }
                            }
                            JOINT LeftFinger3
                            {
                                OFFSET   7.899780   0.000015  -1.078090
                                CHANNELS 3 Zrotation Xrotation Yrotation
                                JOINT LeftFinger31
                                {
                                    OFFSET   4.646920   0.000000   0.000000
                                    CHANNELS 3 Zrotation Xrotation Yrotation
                                    JOINT LeftFinger32
                                    {
                                        OFFSET   2.323470   0.000000   0.000000
                                        CHANNELS 3 Zrotation Xrotation Yrotation
                                        End Site
                                        {
                                            OFFSET   2.273050   0.000000   0.000000
                                        }
                                    }
                                }
                            }
                            JOINT LeftFinger4
                            {
                                OFFSET   7.435090   0.000000  -3.252850
                                CHANNELS 3 Zrotation Xrotation Yrotation
                                JOINT LeftFinger41
                                {
                                    OFFSET   3.717550   0.000000   0.000000
                                    CHANNELS 3 Zrotation Xrotation Yrotation
                                    JOINT LeftFinger42
                                    {
                                        OFFSET   1.858760   0.000000   0.000000
                                        CHANNELS 3 Zrotation Xrotation Yrotation
                                        End Site
                                        {
                                            OFFSET   1.818440   0.000000   0.000000
                                        }
                                    }
                                }
                            }
                        }
                    }
                }
            }
            JOINT RightCollar
            {
                OFFSET  -3.911900  19.017000  -0.467062
                CHANNELS 3 Zrotation Xrotation Yrotation
                JOINT RightShoulder
                {
                    OFFSET -10.383700   0.000015   0.000000
                    CHANNELS 3 Zrotation Xrotation Yrotation
                    JOINT RightElbow
                    {
                        OFFSET -26.662100   0.001341   0.000385
                        CHANNELS 3 Zrotation Xrotation Yrotation
                        JOINT RightWrist
                        {
                            OFFSET -28.869000   0.000025  -0.000080
                            CHANNELS 3 Zrotation Xrotation Yrotation
                            JOINT RightFinger0
                            {
                                OFFSET  -2.044650  -2.323490   3.252850
                                CHANNELS 3 Zrotation Xrotation Yrotation
                                JOINT RightFinger01
                                {
                                    OFFSET  -3.088130   0.000000   0.000000
                                    CHANNELS 3 Zrotation Xrotation Yrotation
                                    JOINT RightFinger02
                                    {
                                        OFFSET  -2.639460   0.000000   0.000000
                                        CHANNELS 3 Zrotation Xrotation Yrotation
                                        End Site
                                        {
                                            OFFSET  -2.582190   0.000000   0.000000
                                        }
                                    }
                                }
                            }
                            JOINT RightFinger1
                            {
                                OFFSET  -8.364480   0.000000   3.252850
                                CHANNELS 3 Zrotation Xrotation Yrotation
                                JOINT RightFinger11
                                {
                                    OFFSET  -4.646930   0.000000   0.000000
                                    CHANNELS 3 Zrotation Xrotation Yrotation
                                    JOINT RightFinger12
                                    {
                                        OFFSET  -2.323470   0.000000   0.000000
                                        CHANNELS 3 Zrotation Xrotation Yrotation
                                        End Site
                                        {
                                            OFFSET  -2.273050   0.000000   0.000000
                                        }
                                    }
                                }
                            }
                            JOINT RightFinger2
                            {
                                OFFSET  -8.364480   0.000000   1.078090
                                CHANNELS 3 Zrotation Xrotation Yrotation
                                JOINT RightFinger21
                                {
                                    OFFSET  -5.111610   0.000000   0.000000
                                    CHANNELS 3 Zrotation Xrotation Yrotation
                                    JOINT RightFinger22
                                    {
                                        OFFSET  -2.788160   0.000000   0.000000
                                        CHANNELS 3 Zrotation Xrotation Yrotation
                                        End Site
                                        {
                                            OFFSET  -2.727660   0.000000   0.000000
                                        }
                                    }
                                }
                            }
                            JOINT RightFinger3
                            {
                                OFFSET  -7.899780   0.000000  -1.078090
                                CHANNELS 3 Zrotation Xrotation Yrotation
                                JOINT RightFinger31
                                {
                                    OFFSET  -4.646920   0.000000   0.000000
                                    CHANNELS 3 Zrotation Xrotation Yrotation
                                    JOINT RightFinger32
                                    {
                                        OFFSET  -2.323470   0.000000   0.000000
                                        CHANNELS 3 Zrotation Xrotation Yrotation
                                        End Site
                                        {
                                            OFFSET  -2.273050   0.000000   0.000000
                                        }
                                    }
                                }
                            }
                            JOINT RightFinger4
                            {
                                OFFSET  -7.435090   0.000000  -3.252850
                                CHANNELS 3 Zrotation Xrotation Yrotation
                                JOINT RightFinger41
                                {
                                    OFFSET  -3.717550   0.000000   0.000000
                                    CHANNELS 3 Zrotation Xrotation Yrotation
                                    JOINT RightFinger42
                                    {
                                        OFFSET  -1.858770   0.000000   0.000000
                                        CHANNELS 3 Zrotation Xrotation Yrotation
                                        End Site
                                        {
                                            OFFSET  -1.818440   0.000000   0.000000
                                        }
                                    }
                                }
                            }
                        }
                    }
                }
            }
        }
    }
    JOINT LeftHip
    {
        OFFSET   9.783010   0.000000   0.000000
        CHANNELS 3 Zrotation Xrotation Yrotation
        JOINT LeftKnee
        {
            OFFSET   0.000070 -41.789100   0.000028
            CHANNELS 3 Zrotation Xrotation Yrotation
            JOINT LeftAnkle
            {
                OFFSET   0.000087 -41.133200  -0.000100
                CHANNELS 3 Zrotation Xrotation Yrotation
                JOINT LeftToe
                {
                    OFFSET   0.000000  -6.358960  14.674500
                    CHANNELS 3 Zrotation Xrotation Yrotation
                    End Site
                    {
                        OFFSET   0.000000   0.000000   3.913200
                    }
                }
            }
        }
    }
    JOINT RightHip
    {
        OFFSET  -9.783020   0.000000   0.000000
        CHANNELS 3 Zrotation Xrotation Yrotation
        JOINT RightKnee
        {
            OFFSET   0.000044 -41.789100  -0.000870
            CHANNELS 3 Zrotation Xrotation Yrotation
            JOINT RightAnkle
            {
                OFFSET  -0.000090 -41.133200  -0.000245
                CHANNELS 3 Zrotation Xrotation Yrotation
                JOINT RightToe
                {
                    OFFSET   0.000000  -6.358960  14.674500
                    CHANNELS 3 Zrotation Xrotation Yrotation
                    End Site
                    {
                        OFFSET   0.000000   0.000000   3.913200
                    }
                }
            }
        }
    }
}
MOTION
Frames: 4
Frame Time:   0.016667
 -0.696222  90.051600   0.987024  -2.405160  -7.458910   0.855499   0.442693   4.578350   0.121435   0.879763   9.157510   0.208776   2.779590   2.205550  -0.110262   4.585480   4.444680 -31.678400  -3.322530  -0.625446   5.372320 -71.269800  23.064700  -3.902970  -3.146160  -5.450580 -14.970900  13.798200   5.327700  10.647800  39.113800  22.752400 -60.316200 -21.535100  -0.075350  -0.030254  -5.767490  -0.031144  -0.044428 -31.442100   8.646710 -13.814500 -26.583400   0.050236   0.146426 -18.608300  -0.008795   0.128738 -28.581000   4.005270  -7.306130 -43.255200   0.168917  -0.056632 -28.808200   0.099495   0.089543 -27.654400   3.536860  -6.714530 -31.143000   0.337970  -0.056739 -20.742000   0.152962   0.206034 -32.586700   0.766809  -1.195480 -48.892100   0.000000   0.004126 -32.562200   0.000000   0.000073   4.603960  -0.847131   9.174660  48.227000  22.289400  54.097700  -5.178060 -27.395700 108.378000 -36.172900  12.664500  39.290300 -49.103100  46.009300  84.413400  30.170700   0.003496  -0.001917  10.085400   0.002030   0.000579  60.212200  -0.349511  -0.201395  49.265000   0.001395   0.002688  36.948800  -0.000155   0.001560  69.914500  -0.954671  -0.350014  69.917300   0.003867   0.001514  52.438000  -0.000412  -0.000398  79.175700  -4.912100  -0.938686  79.215900   0.001832  -0.002072  59.412000   0.002928   0.000519  85.555600  -9.970850  -0.771589 110.000000  -0.002992  -0.000877  80.000000  -0.005932  -0.001156   3.998760   8.407060   0.786511   0.270431   1.477520  13.385500  -6.873970  -3.436900   3.789840   0.000000   0.000000  -0.000000   3.495990   8.372510 -11.444300   0.097046   2.227940  -6.952610  -9.936520   0.748686  -0.933421  -0.000000   0.000000  -0.000000
 -0.689112  90.051500   0.990440  -2.435550  -7.442720   0.696909   0.431109   4.547560   0.118219   0.856844   9.095910   0.202948   2.793980   2.196710  -0.110002   4.608520   4.422870 -32.049500  -3.323900  -0.578337   5.355660 -71.307600  23.070600  -3.881580  -3.121590  -5.511280 -14.927500  13.784200   5.352630  10.619800  39.136300  22.762300 -60.387200 -21.468800  -0.056765  -0.022307  -5.734360  -0.025078  -0.025454 -31.436300   8.665570 -13.846200 -26.583200   0.037142   0.100949 -18.608200  -0.000957   0.086105 -28.594000   4.027730  -7.342610 -43.278700   0.137439  -0.064593 -28.823800   0.095930   0.061987 -27.654900   3.546650  -6.732750 -31.152800   0.499256  -0.093954 -20.749500   0.232661   0.300858 -32.593600   0.762902  -1.193040 -48.902200   0.000000   0.004116 -32.568900   0.000000   0.000000   4.610820  -0.814384   9.165700  48.307800  22.155900  54.114500  -5.252430 -27.454400 108.346000 -35.500600  12.780100  39.262600 -49.320000  46.080700  84.091900  30.277400   0.003496  -0.001949  10.138700   0.002036   0.000596  59.855600  -0.423022  -0.246339  48.973500   0.001600   0.002754  36.730100  -0.000074   0.001526  69.578400  -1.015480  -0.378687  69.581700   0.003723   0.001696  52.186300  -0.000504  -0.000136  78.902100  -4.906950  -0.961810  78.943300   0.001827  -0.002022  59.207500   0.002933   0.000637  85.358200  -9.969470  -0.805579 110.000000  -0.002955  -0.000877  80.000000  -0.005955  -0.001234   4.007290   8.421330   0.795326   0.258853   1.478090  13.460900  -6.863410  -3.462790   3.861000   0.000000   0.000000   0.000000   3.497970   8.346020 -11.430500   0.087864   2.240640  -6.903970  -9.933730   0.743541  -0.837800  -0.000000   0.000000   0.000000
 -0.684663  90.051500   0.994564  -2.466780  -7.424410   0.537503   0.416986   4.511210   0.105146   0.829524   9.023090   0.178066   2.808730   2.197250  -0.109834   4.635030   4.419790 -32.332700  -3.327030  -0.524444   5.325450 -71.348200  23.035200  -3.844570  -3.101390  -5.534580 -14.897800  13.778300   5.360530  10.591200  39.178500  22.772700 -60.502300 -21.363900  -0.030991  -0.005323  -5.681960  -0.014431  -0.007543 -31.446800   8.742140 -13.957300 -26.606700   0.020176   0.012611 -18.624800   0.016213   0.014192 -28.618900   4.078130  -7.425820 -43.326100   0.116739  -0.089623 -28.855400   0.103339   0.035018 -27.660900   3.599100  -6.829580 -31.224300   0.349390  -0.043767 -20.796200   0.138942   0.224687 -32.643200   0.751937  -1.175000 -48.976400  -0.017265   0.004112 -32.618200  -0.006723  -0.018217   4.617130  -0.780575   9.142670  48.377200  22.012300  54.145900  -5.249420 -27.427000 108.366000 -35.137900  12.789100  39.278400 -49.490400  46.281300  84.178000  30.369800   0.003493  -0.001934  10.184900   0.002036   0.000606  59.581800  -0.479123  -0.280471  48.749800   0.001812   0.002822  36.562400   0.000002   0.001497  69.328700  -1.060600  -0.400540  69.332400   0.003587   0.001878  51.999300  -0.000595   0.000123  78.710200  -4.903490  -0.978158  78.752100   0.001822  -0.001974  59.064000   0.002933   0.000748  85.231600  -9.967210  -0.827407 110.000000  -0.002914  -0.000873  80.000000  -0.005980  -0.001312   4.015570   8.433340   0.804479   0.250741   1.479080  13.535800  -6.853130  -3.488890   3.932850   0.000000   0.000000  -0.000000   3.503590   8.320260 -11.430500   0.076482   2.249130  -6.851310  -9.930720   0.736730  -0.732070   0.000000   0.000000   0.000000
 -0.681407  90.051500   0.998391  -2.497710  -7.406510   0.380533   0.401995   4.475060   0.090709   0.800546   8.950640   0.150502   2.826240   2.200140  -0.109769   4.662070   4.428990 -32.531800  -3.331380  -0.475908   5.290940 -71.386600  22.983400  -3.807240  -3.084690  -5.546810 -14.885600  13.776300   5.361890  10.574000  39.207900  22.778800 -60.580100 -21.260100  -0.006444   0.006674  -5.630050  -0.003694   0.002992 -31.462200   8.802490 -14.041300 -26.630400   0.003582  -0.066626 -18.641300   0.028381  -0.053792 -28.647900   4.116070  -7.485130 -43.375600   0.100394  -0.121256 -28.888300   0.117258   0.007206 -27.666300   3.643130  -6.910800 -31.289000   0.139863   0.006418 -20.838600   0.045222   0.103266 -32.688400   0.743636  -1.158600 -49.043900  -0.034530   0.004100 -32.663200  -0.013446  -0.036360   4.624370  -0.750463   9.114460  48.440900  21.887800  54.185400  -5.224970 -27.374400 108.410000 -34.976900  12.789600  39.342400 -49.990000  46.561800  84.514300  30.415400   0.003490  -0.001919  10.207700   0.002037   0.000615  59.447500  -0.506537  -0.297113  48.640100   0.002031   0.002890  36.480100   0.000078   0.001467  69.135800  -1.095410  -0.417725  69.139700   0.003456   0.002059  51.854800  -0.000684   0.000380  78.558100  -4.900770  -0.991171  78.600500   0.001820  -0.001928  58.950300   0.002933   0.000854  85.139300  -9.965000  -0.843370 110.000000  -0.002872  -0.000870  80.000000  -0.006005  -0.001390   4.022480   8.444440   0.815329   0.245593   1.482170  13.607700  -6.842670  -3.515750   4.003790  -0.000000   0.000000   0.000000   3.509320   8.296670 -11.430600   0.065958   2.254580  -6.804060  -9.928110   0.729139  -0.620470   0.000000   0.000000   0.000000
